<svg width="182" height="182" viewBox="0 0 182 182" fill="none" xmlns="http://www.w3.org/2000/svg">
<circle cx="91" cy="91" r="88" fill="#F9F9F9" stroke="#DEDEDE" stroke-width="6"/>
<g clip-path="url(#clip0_1034_23)">
<path d="M121.51 96.041V135.714H104.357V95.469H74.686V135.713H56.867V79.126L86.516 58.738C86.644 53.446 87.895 48.428 90.056 43.921L89.618 43.613L86.554 45.719L62.511 62.179V53.8H49.03V71.406L35 81.011L41.051 89.847L46.157 86.351V135.713V145.669H132.199L132.219 94.876C129.256 95.657 126.149 96.075 122.946 96.075C122.463 96.078 121.986 96.06 121.51 96.041Z" fill="#206F0C"/>
<path d="M124.271 24.716C105.984 24.716 91.158 39.542 91.158 57.83C91.158 76.119 105.984 90.944 124.271 90.944C142.56 90.944 157.385 76.118 157.385 57.829C157.386 39.542 142.561 24.716 124.271 24.716ZM128.346 80.138V87.506H119.938V80.716C115.884 80.39 111.831 79.182 109.334 77.516L108.5 76.961L111.133 67.799L112.654 68.697C115.732 70.511 119.416 71.554 122.758 71.554C126.384 71.554 128.729 69.943 128.729 67.451C128.729 65.746 127.922 63.875 122.083 61.744C115.721 59.441 109.209 56.014 109.209 48.069C109.209 41.672 113.448 36.82 120.355 35.19V28.155H128.762V34.661C132.027 34.906 134.85 35.664 137.558 37.02L138.581 37.532L135.944 46.511L134.116 45.673C132.477 44.907 129.727 43.626 125.664 43.626C122.405 43.626 120.459 44.924 120.459 47.104C120.459 49.001 122.284 50.342 127.975 52.618C136.426 55.788 140.048 60.001 140.048 66.691C140.046 73.367 135.492 78.543 128.346 80.138Z" fill="#206F0C"/>
</g>
<defs>
<clipPath id="clip0_1034_23">
<rect width="122.386" height="122.386" fill="white" transform="translate(35 24)"/>
</clipPath>
</defs>
</svg>
